<svg width="82" height="65" viewBox="0 0 82 65" fill="none" xmlns="http://www.w3.org/2000/svg">
<g clip-path="url(#clip0)">
<path d="M62.454 15C60.1822 15.0102 51.8922 15.4812 45.7254 21.4844C43.1344 23.7992 41.551 26.4297 40.5301 28.8953C39.5093 26.4297 37.9259 23.7992 35.3349 21.4844C29.1681 15.4812 20.8781 15.0102 18.6063 15C18.2613 14.9984 17.9969 15.2656 18 15.6109C18.018 17.7922 18.5586 25.4656 24.9445 31.1812C31.5173 37.5734 38.0268 37.5 40.5301 37.5C43.0335 37.5 49.5414 37.5742 56.1158 31.1812C62.5025 25.4648 63.0423 17.7922 63.0603 15.6109C63.0634 15.2656 62.799 14.9984 62.454 15ZM40.5286 23.6406C41.5315 22.168 42.6877 20.8453 43.9777 19.6937C45.4711 18.2398 47.074 17.0922 48.6918 16.1641C47.4057 10.6562 44.6458 5.76953 41.1247 2.70937C40.8032 2.42968 40.2626 2.42968 39.9403 2.70937C36.4207 5.76718 33.6608 10.6492 32.3724 16.1523C33.9659 17.0664 35.5407 18.1945 37.0051 19.6203C38.3381 20.8131 39.5213 22.1631 40.5286 23.6406Z" fill="#C867A8"/>
</g>
<path d="M6.784 55.24V55.304C7.584 55.3787 8.14933 55.6613 8.48 56.152C8.82133 56.632 8.992 57.3307 8.992 58.248C8.992 59.3573 8.73067 60.1147 8.208 60.52C7.68533 60.9253 6.77333 61.128 5.472 61.128C3.70133 61.128 2.34133 61.0853 1.392 61V49.96C2.23467 49.8747 3.42933 49.832 4.976 49.832C6.352 49.832 7.30667 50.0347 7.84 50.44C8.384 50.8347 8.656 51.592 8.656 52.712C8.656 53.512 8.50667 54.12 8.208 54.536C7.90933 54.9413 7.43467 55.176 6.784 55.24ZM2.768 54.744H5.136C5.95733 54.7333 6.52267 54.6 6.832 54.344C7.14133 54.088 7.296 53.5973 7.296 52.872C7.296 52.136 7.12533 51.6453 6.784 51.4C6.45333 51.1547 5.82933 51.032 4.912 51.032H2.768V54.744ZM2.768 55.816V59.912C3.20533 59.9227 4.032 59.928 5.248 59.928C6.144 59.928 6.752 59.8 7.072 59.544C7.40267 59.288 7.568 58.776 7.568 58.008C7.568 57.1653 7.392 56.5947 7.04 56.296C6.69867 55.9973 6.06933 55.8373 5.152 55.816H2.768ZM12.8179 51.016C13.4685 50.1733 14.6045 49.752 16.2259 49.752C17.8472 49.752 18.9779 50.1733 19.6179 51.016C20.2579 51.848 20.5779 53.336 20.5779 55.48C20.5779 57.624 20.2579 59.1173 19.6179 59.96C18.9779 60.792 17.8472 61.208 16.2259 61.208C14.6045 61.208 13.4685 60.792 12.8179 59.96C12.1779 59.1173 11.8579 57.624 11.8579 55.48C11.8579 53.336 12.1779 51.848 12.8179 51.016ZM18.4819 51.992C18.0659 51.3413 17.3139 51.016 16.2259 51.016C15.1379 51.016 14.3859 51.3413 13.9699 51.992C13.5539 52.632 13.3459 53.7947 13.3459 55.48C13.3459 57.1653 13.5539 58.3333 13.9699 58.984C14.3859 59.624 15.1379 59.944 16.2259 59.944C17.3139 59.944 18.0659 59.624 18.4819 58.984C18.8979 58.3333 19.1059 57.1653 19.1059 55.48C19.1059 53.7947 18.8979 52.632 18.4819 51.992ZM31.8734 49.96V56.776C31.8734 58.3867 31.5747 59.528 30.9774 60.2C30.38 60.872 29.3614 61.208 27.9214 61.208C26.428 61.208 25.372 60.872 24.7534 60.2C24.1454 59.528 23.8414 58.3867 23.8414 56.776V49.96H25.2494V56.776C25.2494 57.96 25.4414 58.7867 25.8254 59.256C26.2094 59.7147 26.8867 59.944 27.8574 59.944C28.8174 59.944 29.4894 59.7147 29.8734 59.256C30.268 58.7867 30.4654 57.96 30.4654 56.776V49.96H31.8734ZM43.0576 51.208H39.4896V61H38.0816V51.208H34.5296V49.96H43.0576V51.208ZM47.2025 61H45.7945V49.96H47.2025V61ZM51.502 51.016C52.1527 50.1733 53.2887 49.752 54.91 49.752C56.5313 49.752 57.662 50.1733 58.302 51.016C58.942 51.848 59.262 53.336 59.262 55.48C59.262 57.624 58.942 59.1173 58.302 59.96C57.662 60.792 56.5313 61.208 54.91 61.208C53.2887 61.208 52.1527 60.792 51.502 59.96C50.862 59.1173 50.542 57.624 50.542 55.48C50.542 53.336 50.862 51.848 51.502 51.016ZM54.91 51.016C53.822 51.016 53.07 51.3413 52.654 51.992C52.238 52.632 52.03 53.7947 52.03 55.48C52.03 57.1653 52.238 58.3333 52.654 58.984C53.07 59.624 53.822 59.944 54.91 59.944C55.9873 59.944 56.734 59.624 57.15 58.984C57.5767 58.3333 57.79 57.1653 57.79 55.48C57.79 53.7947 57.5767 52.632 57.15 51.992C56.734 51.3413 55.9873 51.016 54.91 51.016ZM53.854 62.536L54.254 61.688C55.4273 62.2 56.8407 62.5733 58.494 62.808L58.046 64.216C56.6593 63.9387 55.262 63.3787 53.854 62.536ZM70.5571 49.96V56.776C70.5571 58.3867 70.2585 59.528 69.6611 60.2C69.0638 60.872 68.0451 61.208 66.6051 61.208C65.1118 61.208 64.0558 60.872 63.4371 60.2C62.8291 59.528 62.5251 58.3867 62.5251 56.776V49.96H63.9331V56.776C63.9331 57.96 64.1251 58.7867 64.5091 59.256C64.8931 59.7147 65.5705 59.944 66.5411 59.944C67.5011 59.944 68.1731 59.7147 68.5571 59.256C68.9518 58.7867 69.1491 57.96 69.1491 56.776V49.96H70.5571ZM80.9254 59.832L80.9894 60.92C80.008 60.984 78.4294 61.016 76.2534 61.016C75.6027 61.016 75.0854 60.8453 74.7014 60.504C74.328 60.152 74.136 59.6827 74.1254 59.096V51.864C74.136 51.2773 74.328 50.8133 74.7014 50.472C75.0854 50.12 75.6027 49.944 76.2534 49.944C78.4294 49.944 80.008 49.976 80.9894 50.04L80.9254 51.144H76.4934C75.8534 51.144 75.5334 51.496 75.5334 52.2V54.6H80.3014V55.736H75.5334V58.76C75.5334 59.4747 75.8534 59.832 76.4934 59.832H80.9254Z" fill="#C867A8"/>
<defs>
<clipPath id="clip0">
<rect width="45.0602" height="40" fill="white" transform="translate(18)"/>
</clipPath>
</defs>
</svg>
